<svg width="110" height="24" viewBox="0 0 110 24" fill="none" xmlns="http://www.w3.org/2000/svg">
<g clip-path="url(#clip0_544_46)">
<path d="M33.4347 4.45455H36.6591L40.9773 14.9943H41.1477L45.4659 4.45455H48.6903V19H46.1619V9.0071H46.027L42.0071 18.9574H40.1179L36.098 8.9858H35.9631V19H33.4347V4.45455ZM53.044 23.0909C52.6937 23.0909 52.3693 23.0625 52.071 23.0057C51.7775 22.9536 51.5431 22.892 51.3679 22.821L51.9645 20.8182C52.3385 20.9271 52.6723 20.9792 52.9659 20.9744C53.2595 20.9697 53.5175 20.8774 53.7401 20.6974C53.9673 20.5223 54.1591 20.2287 54.3153 19.8168L54.5355 19.2273L50.5795 8.09091H53.3068L55.821 16.3295H55.9347L58.456 8.09091H61.1903L56.8224 20.321C56.6188 20.8987 56.349 21.3935 56.0128 21.8054C55.6766 22.2221 55.2647 22.5393 54.777 22.7571C54.294 22.9796 53.7164 23.0909 53.044 23.0909ZM68.044 19V4.45455H73.4986C74.616 4.45455 75.5535 4.66288 76.3111 5.07955C77.0734 5.49621 77.6487 6.06913 78.0369 6.7983C78.4299 7.52273 78.6264 8.34659 78.6264 9.26989C78.6264 10.2027 78.4299 11.0312 78.0369 11.7557C77.6439 12.4801 77.0639 13.0507 76.2969 13.4673C75.5298 13.8793 74.5852 14.0852 73.4631 14.0852H69.848V11.919H73.108C73.7614 11.919 74.2964 11.8054 74.7131 11.5781C75.1297 11.3509 75.4375 11.0384 75.6364 10.6406C75.84 10.2429 75.9418 9.78598 75.9418 9.26989C75.9418 8.75379 75.84 8.29924 75.6364 7.90625C75.4375 7.51326 75.1274 7.20786 74.706 6.99006C74.2893 6.76752 73.7519 6.65625 73.0938 6.65625H70.679V19H68.044ZM85.4748 19.2131C84.381 19.2131 83.4364 18.9858 82.641 18.5312C81.8503 18.072 81.2418 17.4233 80.8157 16.5852C80.3896 15.7424 80.1765 14.7505 80.1765 13.6094C80.1765 12.4872 80.3896 11.5024 80.8157 10.6548C81.2466 9.80256 81.8479 9.13968 82.6197 8.66619C83.3915 8.18797 84.2982 7.94886 85.3398 7.94886C86.0122 7.94886 86.6467 8.05777 87.2433 8.27557C87.8446 8.48864 88.3749 8.82008 88.8342 9.26989C89.2982 9.7197 89.6628 10.2926 89.9279 10.9886C90.1931 11.6799 90.3256 12.5038 90.3256 13.4602V14.2486H81.3839V12.5156H87.8612C87.8564 12.0232 87.7499 11.5852 87.5415 11.2017C87.3332 10.8134 87.042 10.508 86.668 10.2855C86.2987 10.063 85.8678 9.9517 85.3754 9.9517C84.8498 9.9517 84.3881 10.0795 83.9904 10.3352C83.5927 10.5862 83.2826 10.9176 83.06 11.3295C82.8422 11.7367 82.7309 12.1842 82.7262 12.6719V14.1847C82.7262 14.8191 82.8422 15.3636 83.0742 15.8182C83.3062 16.268 83.6306 16.6136 84.0472 16.8551C84.4639 17.0919 84.9516 17.2102 85.5103 17.2102C85.8844 17.2102 86.2229 17.1581 86.5259 17.054C86.829 16.9451 87.0917 16.7865 87.3143 16.5781C87.5368 16.3698 87.7049 16.1117 87.8185 15.804L90.2191 16.0739C90.0676 16.7083 89.7788 17.2623 89.3526 17.7358C88.9312 18.2045 88.3915 18.5691 87.7333 18.8295C87.0752 19.0852 86.3223 19.2131 85.4748 19.2131ZM97.9482 8.09091V10.0795H91.6768V8.09091H97.9482ZM93.2251 5.47727H95.7962V15.7188C95.7962 16.0644 95.8482 16.3295 95.9524 16.5142C96.0613 16.6941 96.2034 16.8172 96.3786 16.8835C96.5537 16.9498 96.7479 16.983 96.9609 16.983C97.1219 16.983 97.2687 16.9711 97.4013 16.9474C97.5386 16.9238 97.6428 16.9025 97.7138 16.8835L98.147 18.8935C98.0097 18.9408 97.8132 18.9929 97.5575 19.0497C97.3066 19.1065 96.9988 19.1397 96.6342 19.1491C95.9903 19.1681 95.4103 19.071 94.8942 18.858C94.3781 18.6402 93.9685 18.304 93.6655 17.8494C93.3672 17.3949 93.2204 16.8267 93.2251 16.1449V5.47727ZM108.564 10.9744L106.221 11.2301C106.154 10.9934 106.038 10.7708 105.873 10.5625C105.712 10.3542 105.494 10.1861 105.219 10.0582C104.944 9.9304 104.608 9.86648 104.211 9.86648C103.676 9.86648 103.226 9.98248 102.861 10.2145C102.501 10.4465 102.324 10.7472 102.328 11.1165C102.324 11.4337 102.44 11.6918 102.676 11.8906C102.918 12.0895 103.316 12.2528 103.87 12.3807L105.73 12.7784C106.763 13.0009 107.53 13.3537 108.032 13.8366C108.538 14.3196 108.794 14.9517 108.799 15.733C108.794 16.4195 108.593 17.0256 108.195 17.5511C107.802 18.072 107.255 18.4792 106.554 18.7727C105.854 19.0663 105.049 19.2131 104.14 19.2131C102.804 19.2131 101.73 18.9337 100.915 18.375C100.101 17.8116 99.6154 17.0279 99.4592 16.0241L101.966 15.7827C102.08 16.2751 102.321 16.6468 102.691 16.8977C103.06 17.1487 103.541 17.2741 104.132 17.2741C104.743 17.2741 105.233 17.1487 105.603 16.8977C105.977 16.6468 106.164 16.3366 106.164 15.9673C106.164 15.6548 106.043 15.3968 105.801 15.1932C105.565 14.9896 105.195 14.8333 104.694 14.7244L102.833 14.3338C101.786 14.116 101.012 13.7491 100.51 13.233C100.008 12.7121 99.7598 12.054 99.7646 11.2585C99.7598 10.5862 99.9421 10.0038 100.311 9.51136C100.685 9.0142 101.204 8.63068 101.867 8.3608C102.534 8.08617 103.304 7.94886 104.175 7.94886C105.453 7.94886 106.46 8.22112 107.194 8.76562C107.932 9.31013 108.389 10.0464 108.564 10.9744Z" fill="#7B61FF"/>
<path fill-rule="evenodd" clip-rule="evenodd" d="M7.96687 0C9.86486 0 11.4069 2.31243 11.4069 5.08734C11.4069 7.86229 9.86486 10.1747 7.96687 10.1747C6.06893 10.1747 4.52685 7.86229 4.52685 5.08734C4.64547 2.31243 6.06893 0 7.96687 0ZM12.3559 12.3715C16.3891 12.3715 16.8635 14.9152 20.1849 19.4244C21.8456 22.6618 19.7105 24.6274 15.9146 23.818C14.2539 23.0087 13.0676 22.6618 11.8814 22.6618C9.74615 22.7774 9.27172 24.0493 6.89928 23.9337C5.00133 23.9337 4.17098 23.1243 4.05236 21.9681C3.81512 20.6963 4.40823 20.0025 5.00133 18.9619C7.25514 15.0308 9.62756 11.909 12.3559 12.3715ZM1.44269 7.63099C0.0192232 8.20909 -0.455262 10.2903 0.493716 12.3715C1.44269 14.4527 3.22201 15.7245 4.64547 15.1464C6.06893 14.5683 6.54341 12.4871 5.59444 10.4059C4.64547 8.32479 2.86615 7.05289 1.44269 7.63099ZM22.5574 7.63099C23.9808 8.20909 24.4553 10.2903 23.5063 12.3715C22.676 14.4527 20.778 15.7245 19.3546 15.1464C17.9311 14.5683 17.4566 12.4871 18.4056 10.4059C19.3546 8.32479 21.1339 7.05289 22.5574 7.63099ZM15.9146 0C17.8125 0 19.3546 2.31243 19.3546 5.08734C19.3546 7.86229 17.8125 10.1747 15.9146 10.1747C14.0166 10.1747 12.4745 7.86229 12.4745 5.08734C12.4745 2.31243 14.0166 0 15.9146 0Z" fill="#7B61FF"/>
</g>
<defs>
<clipPath id="clip0_544_46">
<rect width="110" height="24" fill="white"/>
</clipPath>
</defs>
</svg>
